ply
format ascii 1.0
comment VCGLIB generated
element vertex 675
property float x
property float y
property float z
property uchar red
property uchar green
property uchar blue
property uchar alpha
element face 1150
property list uchar int vertex_indices
end_header
0.00316 0.037329 0.004842 0 255 127 255 
0.000653 0.033095 0.001449 255 255 255 255 
0.006647 0.029784 0.003801 255 255 255 255 
0.002172 0.029499 -0.001452 255 255 255 255 
0.004249 0.04186 0.001529 255 255 255 255 
-0.000133 0.027645 0.003048 255 255 255 255 
-0.001261 0.028568 0.001566 255 255 255 255 
0.001194 0.031505 0.006822 0 255 127 255 
0.004116 0.03249 0.003479 255 255 255 255 
-0.001715 0.03805 0.002238 0 255 127 255 
0.003799 0.039292 0.001277 255 255 255 255 
0.003191 0.037723 -0.001284 255 255 255 255 
0.000175 0.038336 0.000342 0 255 0 255 
0.000267 0.039707 0.003678 255 255 255 255 
0.001497 0.036474 0.004033 0 255 127 255 
0.004458 0.03697 0.001905 255 255 255 255 
0.003968 0.034251 0.001948 255 255 255 255 
0.001387 0.033185 -0.000648 0 255 0 255 
0.006445 0.03022 0.001345 255 255 255 255 
0.001488 0.029206 0.006593 0 255 127 255 
-0.001446 0.031233 -0.000403 0 255 0 255 
0.003685 0.02662 0.003249 155 255 155 255 
0.003086 0.033666 -0.001345 255 255 255 255 
0.005535 0.033159 0.001207 255 255 255 255 
-0.001947 0.032924 0.005078 255 255 255 255 
0.000453 0.034766 0.005832 0 255 127 255 
0.001475 0.026914 0.000802 0 255 0 255 
0.003197 0.032438 0.00719 0 255 127 255 
0.001889 0.042988 0.00134 255 255 255 255 
-0.000724 0.033782 0.003628 255 255 255 255 
0.004103 0.026886 0.001309 255 255 255 255 
0.002853 0.035354 0.000261 81 255 81 255 
0.004949 0.029368 -0.000442 255 255 255 255 
0.006278 0.035543 0.003453 255 255 255 255 
-0.00152 0.031364 0.002355 255 255 255 255 
0.000952 0.042828 0.00279 255 255 255 255 
0.003713 0.028467 0.005509 255 255 255 255 
0.003035 0.031498 0.000331 255 255 255 255 
0.004891 0.040762 0.003208 255 255 255 255 
0.001694 0.039661 0.005821 132 255 193 255 
-0.005899 0.035623 0.003544 255 255 255 255 
-0.004021 0.026016 0.009463 91 255 173 255 
-0.004781 0.030176 0.00375 191 255 191 255 
-0.003483 0.031199 0.002697 255 255 255 255 
-0.006458 0.030754 0.005381 173 255 214 255 
-0.004187 0.03684 0.006915 102 255 178 255 
-0.0021 0.034915 0.005315 0 255 127 255 
-0.005544 0.036923 0.005436 255 255 255 255 
-0.0064 0.033381 0.0077 255 255 255 255 
-0.004138 0.033414 0.009463 0 255 127 255 
-0.005683 0.031667 0.00912 255 255 255 255 
-0.005402 0.028896 0.002531 130 255 130 255 
-0.005002 0.026737 0.001632 255 255 255 255 
-0.007243 0.025991 0.0064 255 255 255 255 
0.001004 0.027145 0.006137 255 255 255 255 
-0.006924 0.028889 0.006887 0 255 127 255 
0.001026 0.029403 0.004205 255 255 255 255 
-0.004789 0.029389 0.0077 0 255 127 255 
-0.002214 0.024596 0.004396 255 255 255 255 
-0.002164 0.025626 0.008292 0 255 127 255 
-0.006476 0.025887 0.003472 255 255 255 255 
-0.006011 0.027695 0.009654 99 255 176 255 
-0.00145 0.032416 0.006395 0 255 127 255 
-0.007108 0.032385 0.004768 255 255 255 255 
-0.002422 0.026643 0.001253 255 255 255 255 
-0.002763 0.02905 0.003427 255 255 255 255 
-0.003352 0.035478 0.003576 255 255 255 255 
-0.00456 0.024508 0.006873 255 255 255 255 
-0.002016 0.03296 0.004132 255 255 255 255 
-0.002334 0.030439 0.00872 81 255 167 255 
0.00045 0.030331 0.006908 0 255 127 255 
-0.000355 0.029703 0.009075 63 255 159 255 
-0.004524 0.024476 0.003957 255 255 255 255 
0.002512 0.035899 -0.004517 255 255 255 255 
0.001893 0.025632 0.000486 193 255 224 255 
0.002542 0.030342 -0.004797 0 255 0 255 
0.004115 0.031173 -0.00562 255 255 255 255 
0.000846 0.031099 -0.003262 255 255 255 255 
0.004062 0.03645 -0.000902 255 255 255 255 
0.0059 0.034293 -0.002513 255 255 255 255 
0.002909 0.036932 -0.002476 255 255 255 255 
0.001161 0.03345 -0.000682 0 255 0 255 
0.00319 0.032875 0.001262 255 255 255 255 
0.001386 0.03151 0.000605 255 255 255 255 
0.00182 0.029324 -0.006193 132 255 132 255 
0.001892 0.027216 -0.007279 255 255 255 255 
-0.000936 0.026519 -0.002825 96 255 96 255 
0.00736 0.026019 -0.00226 255 255 255 255 
-0.000123 0.029241 -0.002008 0 255 0 255 
0.008016 0.028386 -0.003932 255 255 255 255 
0.001971 0.029231 -0.000967 255 255 255 255 
0.003915 0.024327 -0.00453 0 255 127 255 
0.003753 0.024982 -0.000556 0 255 127 255 
0.000251 0.027652 0.000685 255 255 255 255 
9.9e-05 0.026521 -0.005671 255 255 255 255 
0.005945 0.031631 -0.001653 255 255 255 255 
0.000586 0.032875 -0.003752 0 255 0 255 
0.004432 0.026641 -0.007443 255 255 255 255 
0.004331 0.028868 -0.005063 255 255 255 255 
0.004968 0.035245 -0.004284 255 255 255 255 
0.001351 0.024494 -0.002285 0 255 58 255 
0.005732 0.032473 -0.003887 255 255 255 255 
0.004462 0.029675 0.000365 255 255 255 255 
0.007347 0.029171 -0.001205 255 255 255 255 
0.006216 0.028531 0.000806 255 255 255 255 
0.001684 0.02471 -0.005174 255 255 255 255 
-0.00154 0.02586 0.009403 0 255 127 255 
-0.00035 0.02493 0.008017 68 255 161 255 
-0.001315 0.023954 0.009077 0 255 127 255 
-0.000848 0.02428 0.005879 0 255 127 255 
-0.002953 0.025264 0.008702 255 255 255 255 
0.000472 0.024641 0.006543 255 255 255 255 
-0.000912 0.025899 0.005682 255 255 255 255 
-0.001814 0.027344 0.009669 0 255 127 255 
0.000642 0.027503 0.00939 255 255 255 255 
-0.002747 0.024722 0.00681 255 255 255 255 
-0.002782 0.026949 0.002455 255 255 255 255 
-0.003943 0.025301 0.002085 255 255 255 255 
-0.002407 0.025436 0.001291 255 255 255 255 
-0.003965 0.023273 0.003147 255 255 255 255 
-0.001557 0.026023 0.003154 255 255 255 255 
-0.005037 0.024013 0.002362 255 255 255 255 
-0.004548 0.024206 0.004352 255 255 255 255 
-0.002982 0.028137 0.003404 255 255 255 255 
-0.005283 0.028045 0.002491 255 255 255 255 
-0.002156 0.024253 0.003805 160 255 207 255 
0.002225 0.030714 0.006186 0 255 127 255 
-0.003355 0.040266 0.002621 255 255 255 255 
-0.004171 0.037524 0.00498 255 255 255 255 
-0.003052 0.030165 0.007884 35 255 144 255 
-0.004971 0.036836 0.000873 255 255 255 255 
-0.000685 0.034822 0.005037 0 255 127 255 
0.000113 0.037415 0.002569 0 255 127 255 
-3.1e-05 0.036546 -0.0003 255 255 255 255 
0.001306 0.035554 0.001519 255 255 255 255 
-0.002863 0.032437 0.006899 255 255 255 255 
-0.005919 0.030173 0.001057 0 255 0 255 
-0.002035 0.027061 0.004532 255 255 255 255 
0.000501 0.028232 0.001371 255 255 255 255 
0.003286 0.031966 0.002479 255 255 255 255 
-0.003678 0.028153 0.000303 255 255 255 255 
0.002439 0.029487 0.001705 255 255 255 255 
-0.000429 0.030114 0.007812 0 255 127 255 
-0.005664 0.037825 0.002853 255 255 255 255 
-0.003719 0.034243 0.000339 0 255 0 255 
-0.001288 0.03662 0.005477 0 255 127 255 
0.000451 0.032923 0.002571 255 255 255 255 
-0.004963 0.028917 0.006387 255 255 255 255 
0.001387 0.033346 0.004793 255 255 255 255 
0.001363 0.028152 0.00439 255 255 255 255 
-0.005239 0.034882 0.002228 191 255 191 255 
-0.000726 0.03289 -0.000179 0 255 0 255 
-0.00309 0.03967 0.000621 255 255 255 255 
-0.003839 0.031458 -0.00077 160 255 160 255 
-0.001481 0.03134 -0.001609 0 255 0 255 
-0.000836 0.027942 0.006496 255 255 255 255 
-0.003942 0.031468 0.004364 89 255 89 255 
0.008377 0.026053 0.002146 255 255 255 255 
0.009036 0.033902 0.003695 255 255 255 255 
0.005576 0.034795 0.003166 255 255 255 255 
0.007845 0.032403 -3.2e-05 255 255 255 255 
0.005346 0.032573 -0.000547 255 255 255 255 
0.006545 0.030847 -0.000519 255 255 255 255 
0.008774 0.029417 0.005284 255 255 255 255 
0.003076 0.030721 0.00634 53 255 153 255 
0.005939 0.025165 0.003104 132 255 132 255 
0.008418 0.035925 0.001349 255 255 255 255 
0.005116 0.025986 0.005916 73 255 164 255 
0.006227 0.027284 -0.000263 255 255 255 255 
0.002099 0.028498 0.005279 255 255 255 255 
0.008635 0.027744 0.006573 255 255 255 255 
0.008605 0.030445 0.002283 255 255 255 255 
0.007324 0.035309 0.00393 255 255 255 255 
0.004397 0.032597 0.003076 0 255 127 255 
0.009515 0.031829 0.002184 255 255 255 255 
0.006219 0.029229 0.001389 255 255 255 255 
0.006751 0.028157 0.007875 124 255 189 255 
0.008187 0.028544 0.001306 255 255 255 255 
0.004589 0.0262 0.000988 255 255 255 255 
0.003572 0.026343 0.00269 255 255 255 255 
0.00582 0.033285 0.004514 255 255 255 255 
0.003962 0.030414 0.001322 255 255 255 255 
0.005518 0.034299 0.001192 255 255 255 255 
0.002505 0.031049 0.003824 255 255 255 255 
0.002194 0.030068 0.001953 255 255 255 255 
0.007102 0.025549 0.005398 255 255 255 255 
0.006345 0.029876 0.005565 0 255 127 255 
-0.000409 0.007631 -0.000118 255 255 255 255 
0.00064 0.007635 -0.000113 255 255 255 255 
0.000261 0.010343 -0.001063 255 255 255 255 
0.001619 0.010349 -0.001182 255 255 255 255 
0.00017 0.010345 -0.00209 255 255 255 255 
0.001568 0.010387 -0.002097 255 255 255 255 
-0.000387 0.007635 -0.001168 255 255 255 255 
0.000661 0.007654 -0.00115 255 255 255 255 
-0.000654 0.00833 -0.001529 255 255 255 255 
-0.000704 0.008322 -0.000185 255 255 255 255 
0.00111 0.008341 -0.000234 255 255 255 255 
0.001161 0.008374 -0.001419 255 255 255 255 
0.000285 0.008369 -0.002004 255 255 255 255 
0.000884 0.01038 -0.002499 255 255 255 255 
0.000955 0.010369 -0.000723 255 255 255 255 
0.000189 0.008324 0.000324 255 255 255 255 
0.000117 0.007628 3.5e-05 255 255 255 255 
0.000147 0.007646 -0.001312 255 255 255 255 
0.001621 0.012914 -0.002608 255 255 255 255 
0.002083 0.012895 -0.002372 255 255 255 255 
0.001958 0.012898 -0.001452 255 255 255 255 
0.002363 0.012892 -0.001909 255 255 255 255 
0.001246 0.012906 -0.002111 255 255 255 255 
0.001568 0.012897 -0.001617 255 255 255 255 
0.000695 0.014834 -0.002472 255 255 255 255 
0.001046 0.014877 -0.002775 255 255 255 255 
0.001476 0.014892 -0.002075 255 255 255 255 
0.001616 0.014928 -0.002597 255 255 255 255 
0.000565 0.01482 -0.002142 255 255 255 255 
0.001127 0.014852 -0.001966 255 255 255 255 
-0.000228 0.017445 -0.001399 255 255 255 255 
2e-06 0.017447 -0.001684 255 255 255 255 
0.000673 0.017469 -0.001331 255 255 255 255 
0.00046 0.017459 -0.001673 255 255 255 255 
-5.2e-05 0.017453 -0.001132 255 255 255 255 
0.000517 0.017468 -0.001073 255 255 255 255 
0.000385 0.021139 0.000226 255 255 255 255 
0.000365 0.021138 -3.2e-05 255 255 255 255 
0.000982 0.021145 -6.5e-05 255 255 255 255 
0.000693 0.021141 -0.00019 255 255 255 255 
0.000637 0.021142 0.00033 255 255 255 255 
0.00096 0.021145 0.000172 255 255 255 255 
0.001816 0.025033 0.001663 255 255 255 255 
0.00172 0.025031 0.001578 255 255 255 255 
0.00198 0.025034 0.001398 255 255 255 255 
0.001846 0.025032 0.001373 255 255 255 255 
0.001926 0.025034 0.001682 255 255 255 255 
0.002053 0.025035 0.001478 255 255 255 255 
0.001838 0.027358 0.002396 255 255 255 255 
0.001756 0.027357 0.002376 255 255 255 255 
0.001833 0.027357 0.00219 255 255 255 255 
0.001752 0.027357 0.002217 255 255 255 255 
0.001904 0.027359 0.002374 255 255 255 255 
0.0019 0.027358 0.002215 255 255 255 255 
0.000344 0.006066 -3.3e-05 255 255 255 255 
5e-06 0.006073 -0.000958 255 255 255 255 
0.000398 0.006074 -0.00098 255 255 255 255 
0.000661 0.006068 -0.000265 255 255 255 255 
-0.000319 0.006073 -0.000723 255 255 255 255 
-5.6e-05 0.006065 -6e-06 255 255 255 255 
-0.000194 0.003766 -0.000228 255 255 255 255 
-0.00076 0.003769 -0.000451 255 255 255 255 
-0.000611 0.003772 -0.000642 255 255 255 255 
-0.000173 0.003769 -0.00047 255 255 255 255 
-0.000783 0.003766 -0.000204 255 255 255 255 
-0.000345 0.003764 -3.2e-05 255 255 255 255 
-0.00013 0 0.00017 255 255 255 255 
-0.000323 1e-06 0.000264 255 255 255 255 
-0.000337 1e-06 0.00018 255 255 255 255 
-0.000188 0 0.000107 255 255 255 255 
-0.000264 1e-06 0.000329 255 255 255 255 
-0.000116 -0 0.000256 255 255 255 255 
0.00018 0.000148 0.008784 255 255 255 255 
0.000387 0.000148 0.008784 255 255 255 255 
0.000115 0.005262 0.008268 255 255 255 255 
0.000435 0.005262 0.008268 255 255 255 255 
0.000122 0.004932 0.007747 255 255 255 255 
0.000425 0.004933 0.007747 255 255 255 255 
0.000185 0.000148 0.008402 255 255 255 255 
0.000381 0.000148 0.008402 255 255 255 255 
-0.000134 0.007883 0.004981 255 255 255 255 
0.000257 0.007885 0.004983 255 255 255 255 
0.000249 0.007386 0.004375 255 255 255 255 
-0.000123 0.007383 0.004372 255 255 255 255 
-4e-06 0.008331 -3e-06 255 255 255 255 
0.00041 0.008333 2e-06 255 255 255 255 
0.000329 0.007884 -9.5e-05 255 255 255 255 
-6.4e-05 0.007884 -9.7e-05 255 255 255 255 
-0.000251 0.008115 -4.5e-05 255 255 255 255 
0.000516 0.008116 -4.2e-05 255 255 255 255 
0.000393 0.007634 0.004679 255 255 255 255 
0.000595 0.0051 0.008008 255 255 255 255 
0.000491 0.000148 0.008593 255 255 255 255 
0.000109 0.000148 0.008593 255 255 255 255 
4e-06 0.005097 0.008008 255 255 255 255 
-0.00033 0.007632 0.004676 255 255 255 255 
0.008954 0.000148 -0.000861 255 255 255 255 
0.008945 0.000148 -0.001067 255 255 255 255 
0.00844 0.003449 -0.000775 255 255 255 255 
0.008427 0.003447 -0.001095 255 255 255 255 
0.00792 0.003149 -0.000761 255 255 255 255 
0.007908 0.003147 -0.001064 255 255 255 255 
0.008572 0.000148 -0.00085 255 255 255 255 
0.008564 0.000148 -0.001046 255 255 255 255 
0.005437 0.00604 -0.000406 255 255 255 255 
0.005421 0.00604 -0.000796 255 255 255 255 
0.004811 0.005573 -0.000764 255 255 255 255 
0.004826 0.005571 -0.000393 255 255 255 255 
0.000434 0.006718 -0.000345 255 255 255 255 
0.000418 0.006726 -0.00076 255 255 255 255 
0.000171 0.006275 -0.000671 255 255 255 255 
0.000187 0.006259 -0.000276 255 255 255 255 
0.000384 0.006486 -0.000258 255 255 255 255 
0.000289 0.006498 -0.000861 255 255 255 255 
0.00511 0.005799 -0.00092 255 255 255 255 
0.008161 0.003296 -0.001244 255 255 255 255 
0.00875 0.000148 -0.001163 255 255 255 255 
0.008765 0.000148 -0.000782 255 255 255 255 
0.008185 0.003299 -0.000654 255 255 255 255 
0.005139 0.005802 -0.000198 255 255 255 255 
-0.006519 0.000148 -0.00596 255 255 255 255 
-0.006655 0.000148 -0.005805 255 255 255 255 
-0.006087 0.004759 -0.005668 255 255 255 255 
-0.006298 0.004763 -0.005428 255 255 255 255 
-0.005701 0.00445 -0.005321 255 255 255 255 
-0.005901 0.004454 -0.005092 255 255 255 255 
-0.006234 0.000148 -0.005705 255 255 255 255 
-0.006364 0.000148 -0.005557 255 255 255 255 
-0.003488 0.007048 -0.00373 255 255 255 255 
-0.003746 0.007054 -0.003437 255 255 255 255 
-0.003282 0.006626 -0.003039 255 255 255 255 
-0.003037 0.006619 -0.003318 255 255 255 255 
-6.3e-05 0.007766 -0.001196 255 255 255 255 
-0.000345 0.007759 -0.000889 255 255 255 255 
-0.000207 0.007341 -0.000621 255 255 255 255 
5.6e-05 0.007342 -0.000915 255 255 255 255 
0.000137 0.007554 -0.001209 255 255 255 255 
-0.00038 0.007551 -0.00064 255 255 255 255 
-0.003606 0.006841 -0.003133 255 255 255 255 
-0.006208 0.004614 -0.005136 255 255 255 255 
-0.00658 0.000148 -0.005601 255 255 255 255 
-0.006328 0.000148 -0.005888 255 255 255 255 
-0.005818 0.004606 -0.005581 255 255 255 255 
-0.00313 0.00683 -0.003675 255 255 255 255 
-0.005195 0.000148 0.004104 255 255 255 255 
-0.00509 0.000148 0.004231 255 255 255 255 
-0.00491 0.002868 0.003803 255 255 255 255 
-0.004748 0.002869 0.003999 255 255 255 255 
-0.004586 0.002611 0.003544 255 255 255 255 
-0.004433 0.002611 0.003731 255 255 255 255 
-0.004957 0.000148 0.003913 255 255 255 255 
-0.004858 0.000148 0.004034 255 255 255 255 
-0.003181 0.005036 0.002124 255 255 255 255 
-0.002983 0.005039 0.002365 255 255 255 255 
-0.002611 0.004685 0.002051 255 255 255 255 
-0.002799 0.004682 0.001822 255 255 255 255 
-0.000106 0.005894 -0.000451 255 255 255 255 
0.000106 0.005888 -0.000193 255 255 255 255 
0.000253 0.005484 -0.000296 255 255 255 255 
5.2e-05 0.005491 -0.00054 255 255 255 255 
-0.000136 0.005697 -0.000625 255 255 255 255 
0.000255 0.005686 -0.000149 255 255 255 255 
-0.002726 0.004862 0.002294 255 255 255 255 
-0.004507 0.002742 0.003967 255 255 255 255 
-0.00492 0.000148 0.004198 255 255 255 255 
-0.005113 0.000148 0.003963 255 255 255 255 
-0.004806 0.002739 0.003603 255 255 255 255 
-0.003092 0.004858 0.001849 255 255 255 255 
0.003823 0.000148 -0.007697 255 255 255 255 
0.003642 0.000148 -0.007795 255 255 255 255 
0.003652 0.004156 -0.007244 255 255 255 255 
0.003371 0.004159 -0.007397 255 255 255 255 
0.003416 0.003778 -0.006823 255 255 255 255 
0.003149 0.003781 -0.006968 255 255 255 255 
0.003651 0.000148 -0.007387 255 255 255 255 
0.003478 0.000148 -0.007481 255 255 255 255 
0.002554 0.007538 -0.004669 255 255 255 255 
0.002212 0.007526 -0.004855 255 255 255 255 
0.001932 0.006978 -0.004352 255 255 255 255 
0.002259 0.006989 -0.004175 255 255 255 255 
0.000595 0.008634 -0.001267 255 255 255 255 
0.000238 0.008627 -0.001472 255 255 255 255 
-1e-05 0.008049 -0.001058 255 255 255 255 
0.000332 0.008056 -0.000867 255 255 255 255 
0.000641 0.008351 -0.000955 255 255 255 255 
-1.9e-05 0.008345 -0.001332 255 255 255 255 
0.001943 0.007244 -0.00467 255 255 255 255 
0.003115 0.003972 -0.007261 255 255 255 255 
0.003466 0.000148 -0.007689 255 255 255 255 
0.003802 0.000148 -0.007506 255 255 255 255 
0.003635 0.003967 -0.006979 255 255 255 255 
0.002579 0.007258 -0.004325 255 255 255 255 
-0.000685 0.000148 -0.005779 255 255 255 255 
-0.000756 0.000148 -0.005778 255 255 255 255 
-0.000644 0.001913 -0.005307 255 255 255 255 
-0.000778 0.001913 -0.005305 255 255 255 255 
-0.000644 0.001717 -0.005089 255 255 255 255 
-0.000771 0.001718 -0.005088 255 255 255 255 
-0.000684 0.000148 -0.005613 255 255 255 255 
-0.000752 0.000148 -0.005613 255 255 255 255 
-0.000451 0.003549 -0.00337 255 255 255 255 
-0.000591 0.003551 -0.003367 255 255 255 255 
-0.000585 0.003333 -0.003164 255 255 255 255 
-0.000452 0.003331 -0.003167 255 255 255 255 
-0.000345 0.003655 -0.000427 255 255 255 255 
-0.000629 0.003655 -0.000424 255 255 255 255 
-0.000595 0.003423 -0.000214 255 255 255 255 
-0.000351 0.003423 -0.000217 255 255 255 255 
-0.000201 0.003539 -0.000324 255 255 255 255 
-0.000701 0.003539 -0.000318 255 255 255 255 
-0.000638 0.003442 -0.003265 255 255 255 255 
-0.000843 0.001816 -0.005196 255 255 255 255 
-0.000791 0.000148 -0.005695 255 255 255 255 
-0.000659 0.000148 -0.005696 255 255 255 255 
-0.000596 0.001814 -0.005199 255 255 255 255 
-0.00038 0.003439 -0.003269 255 255 255 255 
0.0062 0.000148 0.003795 255 255 255 255 
0.006258 0.000148 0.003782 255 255 255 255 
0.006036 0.003542 0.003262 255 255 255 255 
0.00617 0.003557 0.003231 255 255 255 255 
0.006008 0.003434 0.003145 255 255 255 255 
0.006143 0.003449 0.003113 255 255 255 255 
0.006187 0.000148 0.003737 255 255 255 255 
0.006245 0.000148 0.003724 255 255 255 255 
0.00565 0.005314 0.001741 255 255 255 255 
0.005843 0.005353 0.001696 255 255 255 255 
0.005819 0.005106 0.001595 255 255 255 255 
0.005627 0.005067 0.00164 255 255 255 255 
0.005139 0.005998 -0.000446 255 255 255 255 
0.005334 0.006048 -0.000491 255 255 255 255 
0.005327 0.005766 -0.000522 255 255 255 255 
0.005131 0.005718 -0.000477 255 255 255 255 
-0.00696 0.000148 0.000178 255 255 255 255 
-0.006986 0.000148 0.000232 255 255 255 255 
-0.00644 0.003122 0.000382 255 255 255 255 
-0.006499 0.003131 0.000506 255 255 255 255 
-0.006331 0.003024 0.000433 255 255 255 255 
-0.006391 0.003034 0.000558 255 255 255 255 
-0.006906 0.000148 0.000204 255 255 255 255 
-0.006932 0.000148 0.000258 255 255 255 255 
-0.005011 0.00459 0.001028 255 255 255 255 
-0.005096 0.004618 0.001207 255 255 255 255 
-0.005002 0.004402 0.001251 255 255 255 255 
-0.004917 0.004375 0.001072 255 255 255 255 
-0.002981 0.005039 0.00199 255 255 255 255 
-0.003068 0.00503 0.002172 255 255 255 255 
-0.003039 0.004842 0.002185 255 255 255 255 
-0.002953 0.004806 0.002004 255 255 255 255 
0.00376 9.6e-05 0.002383 255 255 255 255 
0.003725 9.4e-05 0.002335 255 255 255 255 
0.00333 0.003943 0.002739 255 255 255 255 
0.00325 0.003919 0.002627 255 255 255 255 
0.003232 0.003832 0.002809 255 255 255 255 
0.003151 0.003807 0.002697 255 255 255 255 
0.003711 9.6e-05 0.002418 255 255 255 255 
0.003677 9.4e-05 0.00237 255 255 255 255 
0.002071 0.006421 0.003675 255 255 255 255 
0.001956 0.006374 0.003514 255 255 255 255 
0.001871 0.006071 0.003574 255 255 255 255 
0.001986 0.006116 0.003735 255 255 255 255 
0.000243 0.007802 0.004938 255 255 255 255 
0.000127 0.007746 0.004767 255 255 255 255 
0.000101 0.007404 0.004813 255 255 255 255 
0.000217 0.007454 0.004981 255 255 255 255 
-0.002171 0.000148 -0.010197 255 255 255 255 
-0.002218 0.000148 -0.01016 255 255 255 255 
-0.001588 0.00463 -0.009515 255 255 255 255 
-0.001696 0.004623 -0.00943 255 255 255 255 
-0.001468 0.004483 -0.009362 255 255 255 255 
-0.001577 0.004476 -0.009277 255 255 255 255 
-0.002112 0.000148 -0.010121 255 255 255 255 
-0.002159 0.000148 -0.010084 255 255 255 255 
-7e-06 0.006765 -0.007544 255 255 255 255 
-0.000163 0.006734 -0.007422 255 255 255 255 
-6e-05 0.0064 -0.00729 255 255 255 255 
9.6e-05 0.00643 -0.007412 255 255 255 255 
0.002237 0.00739 -0.004698 255 255 255 255 
0.002079 0.007344 -0.004578 255 255 255 255 
0.002098 0.006982 -0.004531 255 255 255 255 
0.002256 0.007024 -0.004655 255 255 255 255 
0.008036 0.000148 -0.007683 255 255 255 255 
0.008027 0.000148 -0.007742 255 255 255 255 
0.007449 0.002485 -0.007556 255 255 255 255 
0.007429 0.002485 -0.007692 255 255 255 255 
0.007321 0.002415 -0.007537 255 255 255 255 
0.0073 0.002415 -0.007673 255 255 255 255 
0.007972 0.000148 -0.007673 255 255 255 255 
0.007963 0.000148 -0.007733 255 255 255 255 
0.005784 0.003858 -0.007277 255 255 255 255 
0.005755 0.003872 -0.007473 255 255 255 255 
0.005644 0.0037 -0.007456 255 255 255 255 
0.005673 0.003687 -0.00726 255 255 255 255 
0.003393 0.004212 -0.006919 255 255 255 255 
0.003364 0.004242 -0.007117 255 255 255 255 
0.00333 0.004061 -0.007112 255 255 255 255 
0.003359 0.004032 -0.006914 255 255 255 255 
-0.007686 0.000148 -0.009777 255 255 255 255 
-0.007741 0.000148 -0.009755 255 255 255 255 
-0.007433 0.002678 -0.009232 255 255 255 255 
-0.007562 0.002678 -0.009182 255 255 255 255 
-0.007386 0.002602 -0.009111 255 255 255 255 
-0.007515 0.002602 -0.009061 255 255 255 255 
-0.007663 0.000148 -0.009717 255 255 255 255 
-0.007718 0.000148 -0.009695 255 255 255 255 
-0.006796 0.004239 -0.007668 255 255 255 255 
-0.006981 0.004244 -0.007597 255 255 255 255 
-0.00694 0.004056 -0.007493 255 255 255 255 
-0.006756 0.004051 -0.007564 255 255 255 255 
-0.005923 0.004623 -0.005414 255 255 255 255 
-0.00611 0.00464 -0.005342 255 255 255 255 
-0.006097 0.004441 -0.00531 255 255 255 255 
-0.00591 0.004422 -0.005382 255 255 255 255 
0.00449 0.000162 0.010197 255 255 255 255 
0.004515 0.00016 0.010143 255 255 255 255 
0.003937 0.002877 0.009912 255 255 255 255 
0.003995 0.002874 0.009787 255 255 255 255 
0.003819 0.002795 0.00986 255 255 255 255 
0.003877 0.002791 0.009735 255 255 255 255 
0.004432 0.000161 0.01017 255 255 255 255 
0.004457 0.00016 0.010116 255 255 255 255 
0.002398 0.004562 0.009187 255 255 255 255 
0.002481 0.004547 0.009007 255 255 255 255 
0.002379 0.004346 0.008966 255 255 255 255 
0.002296 0.004359 0.009145 255 255 255 255 
0.000206 0.00513 0.008153 255 255 255 255 
0.000291 0.005097 0.007971 255 255 255 255 
0.000259 0.004876 0.007962 255 255 255 255 
0.000174 0.004907 0.008144 255 255 255 255 
0.004956 0.000106 -0.002625 255 255 255 255 
0.004969 0.000106 -0.002683 255 255 255 255 
0.004573 0.004323 -0.00267 255 255 255 255 
0.004603 0.004332 -0.002805 255 255 255 255 
0.004439 0.004208 -0.0027 255 255 255 255 
0.004469 0.004216 -0.002835 255 255 255 255 
0.004913 0.000103 -0.002635 255 255 255 255 
0.004926 0.000103 -0.002693 255 255 255 255 
0.003542 0.007147 -0.002901 255 255 255 255 
0.003584 0.007167 -0.00309 255 255 255 255 
0.003277 0.006901 -0.003152 255 255 255 255 
0.003235 0.006882 -0.002961 255 255 255 255 
0.001758 0.007757 -0.003506 255 255 255 255 
0.001801 0.007788 -0.003688 255 255 255 255 
0.001726 0.007412 -0.00363 255 255 255 255 
0.001684 0.007383 -0.003445 255 255 255 255 
0.003762 0.020274 0.001849 255 255 255 255 
0.003731 0.020274 0.001899 255 255 255 255 
0.003017 0.018487 0.001153 255 255 255 255 
0.002949 0.018486 0.001267 255 255 255 255 
0.002781 0.018623 0.000994 255 255 255 255 
0.002716 0.018623 0.001101 255 255 255 255 
0.003663 0.020285 0.001784 255 255 255 255 
0.003633 0.020285 0.001832 255 255 255 255 
0.001743 0.017475 -8.2e-05 255 255 255 255 
0.001622 0.017431 5.2e-05 255 255 255 255 
0.001437 0.017766 1.3e-05 255 255 255 255 
0.001551 0.017807 -0.000114 255 255 255 255 
0.000518 0.017481 -0.001432 255 255 255 255 
0.000381 0.01748 -0.001226 255 255 255 255 
0.000148 0.017882 -0.001052 255 255 255 255 
0.000272 0.017883 -0.001259 255 255 255 255 
0.000463 0.017684 -0.001456 255 255 255 255 
0.000213 0.017682 -0.001067 255 255 255 255 
0.001486 0.017585 7.7e-05 255 255 255 255 
0.002797 0.018554 0.001242 255 255 255 255 
0.003666 0.020279 0.001892 255 255 255 255 
0.003724 0.02028 0.001798 255 255 255 255 
0.002923 0.018555 0.001032 255 255 255 255 
0.001707 0.017668 -0.000171 255 255 255 255 
-0.003233 0.025323 0.005763 255 255 255 255 
-0.003276 0.025322 0.005692 255 255 255 255 
-0.003203 0.021896 0.004802 255 255 255 255 
-0.003299 0.021894 0.004644 255 255 255 255 
-0.002992 0.022092 0.004631 255 255 255 255 
-0.003085 0.022091 0.004482 255 255 255 255 
-0.003104 0.02534 0.005683 255 255 255 255 
-0.003145 0.025339 0.005616 255 255 255 255 
-0.002066 0.019749 0.001592 255 255 255 255 
-0.002184 0.019747 0.001377 255 255 255 255 
-0.001927 0.019995 0.001237 255 255 255 255 
-0.001812 0.019996 0.001441 255 255 255 255 
0.000306 0.01914 -0.000628 255 255 255 255 
0.000182 0.019138 -0.000844 255 255 255 255 
0.000291 0.019521 -0.00061 255 255 255 255 
0.00041 0.019523 -0.000402 255 255 255 255 
0.000423 0.019332 -0.000397 255 255 255 255 
0.000191 0.019329 -0.000802 255 255 255 255 
-0.002101 0.01987 0.001229 255 255 255 255 
-0.003242 0.021992 0.004482 255 255 255 255 
-0.003233 0.02533 0.005617 255 255 255 255 
-0.003153 0.025332 0.005748 255 255 255 255 
-0.00306 0.021994 0.004771 255 255 255 255 
-0.001877 0.019873 0.001627 255 255 255 255 
0.003094 0.025931 -0.002654 255 255 255 255 
0.00316 0.025932 -0.002644 255 255 255 255 
0.002647 0.023245 -0.002084 255 255 255 255 
0.002802 0.023247 -0.002061 255 255 255 255 
0.002615 0.023397 -0.001874 255 255 255 255 
0.002761 0.023399 -0.001854 255 255 255 255 
0.003076 0.025944 -0.002535 255 255 255 255 
0.003137 0.025944 -0.002525 255 255 255 255 
0.001485 0.021548 -0.001339 255 255 255 255 
0.001683 0.02155 -0.001299 255 255 255 255 
0.001597 0.021742 -0.001018 255 255 255 255 
0.001411 0.02174 -0.001058 255 255 255 255 
0.000638 0.021048 -0.00012 255 255 255 255 
0.000845 0.02105 -7e-05 255 255 255 255 
0.000866 0.02135 0.000227 255 255 255 255 
0.000667 0.021348 0.000181 255 255 255 255 
0.000544 0.021196 7e-06 255 255 255 255 
0.000929 0.021201 9.8e-05 255 255 255 255 
0.001709 0.021647 -0.001142 255 255 255 255 
0.002861 0.023324 -0.001945 255 255 255 255 
0.003183 0.025939 -0.00258 255 255 255 255 
0.003061 0.025937 -0.002598 255 255 255 255 
0.002577 0.023321 -0.001984 255 255 255 255 
0.001345 0.021643 -0.001219 255 255 255 255 
0.003827 0.028264 0.004409 255 255 255 255 
0.003788 0.028263 0.004433 255 255 255 255 
0.003668 0.026387 0.004094 255 255 255 255 
0.003579 0.026386 0.004149 255 255 255 255 
0.003582 0.026492 0.003959 255 255 255 255 
0.003497 0.026491 0.004011 255 255 255 255 
0.003782 0.028272 0.004338 255 255 255 255 
0.003745 0.028272 0.00436 255 255 255 255 
0.002906 0.025198 0.002886 255 255 255 255 
0.002783 0.025197 0.002952 255 255 255 255 
0.002692 0.02533 0.002798 255 255 255 255 
0.002808 0.025331 0.002732 255 255 255 255 
0.001935 0.02484 0.001521 255 255 255 255 
0.001804 0.024838 0.001593 255 255 255 255 
0.001815 0.025047 0.001567 255 255 255 255 
0.001939 0.025048 0.001496 255 255 255 255 
0.002006 0.024945 0.001473 255 255 255 255 
0.001763 0.024942 0.001608 255 255 255 255 
0.002694 0.025263 0.002902 255 255 255 255 
0.003492 0.026438 0.004108 255 255 255 255 
0.003746 0.028267 0.004409 255 255 255 255 
0.003818 0.028268 0.004365 255 255 255 255 
0.003657 0.02644 0.004007 255 255 255 255 
0.00292 0.025265 0.002775 255 255 255 255 
-0.001716 0.02425 0.007061 255 255 255 255 
-0.001771 0.02425 0.007093 255 255 255 255 
-0.002117 0.022821 0.006308 255 255 255 255 
-0.002247 0.02282 0.006424 255 255 255 255 
-0.002166 0.02293 0.006199 255 255 255 255 
-0.002297 0.022929 0.006313 255 255 255 255 
-0.001744 0.024259 0.007002 255 255 255 255 
-0.0018 0.024258 0.007033 255 255 255 255 
-0.003084 0.021929 0.00457 255 255 255 255 
-0.003206 0.021928 0.004712 255 255 255 255 
-0.003177 0.022118 0.004751 255 255 255 255 
-0.003057 0.022119 0.004617 255 255 255 255 
0.003119 0.026027 -3.2e-05 255 255 255 255 
0.003179 0.026028 -1e-06 255 255 255 255 
0.002638 0.0246 0.000244 244 255 244 255 
0.002803 0.024602 0.000325 234 255 234 255 
0.002584 0.024709 0.000376 249 255 249 255 
0.002748 0.024711 0.000456 255 255 255 255 
0.003088 0.026036 2.5e-05 255 255 255 255 
0.003147 0.026037 5.6e-05 255 255 255 255 
0.00149 0.023712 0.001144 255 255 255 255 
0.001661 0.023714 0.001227 255 255 255 255 
0.001721 0.023904 0.001322 255 255 255 255 
0.00155 0.023901 0.001239 255 255 255 255 
0.000104 0.028072 0.001764 255 255 255 255 
0.000109 0.028072 0.001704 255 255 255 255 
0.000459 0.026756 0.001893 0 255 127 255 
0.00047 0.026756 0.001726 0 255 127 255 
0.000599 0.026859 0.001901 0 255 127 255 
0.000611 0.026859 0.001734 0 255 127 255 
0.000164 0.028081 0.00177 255 255 255 255 
0.000169 0.028081 0.001709 255 255 255 255 
0.001833 0.025958 0.002033 204 255 229 255 
0.001843 0.025957 0.00186 204 255 229 255 
0.001891 0.026133 0.001867 255 255 255 255 
0.00188 0.026133 0.00204 229 255 242 255 
-0.003626 0.023821 0.003077 255 255 255 255 
-0.003576 0.023822 0.003019 255 255 255 255 
-0.003701 0.022087 0.002972 255 255 255 255 
-0.003585 0.022088 0.002769 255 255 255 255 
-0.003577 0.022223 0.003113 255 255 255 255 
-0.003464 0.022223 0.002913 255 255 255 255 
-0.003573 0.023833 0.003128 255 255 255 255 
-0.003525 0.023833 0.003068 255 255 255 255 
-0.002833 0.02103 0.003463 255 255 255 255 
-0.002731 0.02103 0.003213 255 255 255 255 
-0.002676 0.021261 0.003367 255 255 255 255 
-0.002779 0.02126 0.00361 255 255 255 255 
3 9 12 1 
3 18 37 23 
3 8 18 23 
3 6 20 26 
3 29 25 14 
3 14 7 27 
3 16 22 31 
3 0 8 33 
3 29 24 25 
3 32 18 30 
3 5 24 34 
3 5 19 24 
3 15 16 11 
3 15 33 16 
3 10 4 15 
3 0 14 8 
3 14 25 7 
3 28 4 12 
3 12 4 10 
3 22 37 17 
3 27 8 14 
3 36 21 2 
3 34 20 6 
3 29 14 9 
3 1 29 9 
3 31 11 16 
3 12 11 31 
3 0 39 14 
3 33 15 0 
3 38 39 0 
3 15 38 0 
3 15 4 38 
3 10 15 11 
3 20 17 3 
3 17 20 1 
3 18 32 37 
3 18 8 2 
3 24 19 7 
3 34 6 5 
3 30 18 2 
3 30 2 21 
3 16 8 23 
3 35 39 38 
3 28 35 38 
3 39 35 13 
3 21 36 19 
3 5 21 19 
3 20 34 1 
3 5 6 26 
3 21 5 26 
3 35 28 13 
3 13 28 12 
3 29 34 24 
3 37 22 23 
3 30 26 3 
3 32 30 3 
3 26 30 21 
3 31 22 17 
3 27 2 8 
3 4 28 38 
3 1 31 17 
3 23 22 16 
3 1 34 29 
3 25 24 7 
3 33 8 16 
3 26 20 3 
3 7 19 27 
3 36 27 19 
3 2 27 36 
3 37 3 17 
3 37 32 3 
3 13 9 14 
3 1 12 31 
3 9 13 12 
3 39 13 14 
3 11 12 10 
3 62 70 56 
3 59 71 41 
3 47 40 48 
3 48 40 63 
3 54 58 64 
3 65 56 64 
3 44 63 42 
3 43 66 68 
3 63 40 43 
3 63 43 42 
3 65 64 52 
3 72 52 64 
3 58 72 64 
3 47 45 66 
3 56 70 54 
3 45 46 66 
3 41 53 67 
3 46 49 62 
3 48 49 45 
3 49 69 62 
3 52 60 53 
3 55 52 53 
3 51 65 52 
3 64 56 54 
3 53 41 61 
3 43 65 42 
3 54 70 71 
3 57 71 69 
3 51 44 42 
3 66 40 47 
3 55 57 44 
3 58 67 72 
3 60 72 53 
3 72 67 53 
3 51 52 44 
3 48 45 47 
3 58 59 67 
3 59 41 67 
3 57 61 71 
3 59 58 54 
3 49 46 45 
3 65 51 42 
3 60 52 72 
3 55 61 57 
3 53 61 55 
3 66 43 40 
3 66 46 68 
3 63 50 48 
3 50 63 44 
3 50 57 69 
3 49 50 69 
3 71 61 41 
3 62 56 65 
3 52 55 44 
3 70 62 71 
3 57 50 44 
3 68 62 65 
3 68 46 62 
3 71 59 54 
3 43 68 65 
3 69 71 62 
3 50 49 48 
3 95 103 89 
3 92 104 74 
3 80 73 81 
3 81 73 96 
3 87 91 97 
3 98 89 97 
3 77 96 75 
3 76 99 101 
3 96 73 76 
3 96 76 75 
3 93 88 86 
3 98 97 85 
3 105 85 97 
3 91 105 97 
3 80 78 99 
3 89 103 87 
3 78 79 99 
3 74 86 100 
3 74 93 86 
3 79 82 95 
3 81 82 78 
3 82 102 95 
3 85 94 86 
3 86 88 85 
3 84 98 85 
3 97 89 87 
3 76 98 75 
3 87 103 104 
3 90 104 102 
3 84 77 75 
3 99 73 80 
3 88 90 77 
3 91 100 105 
3 94 105 86 
3 105 100 86 
3 84 85 77 
3 81 78 80 
3 91 92 100 
3 92 74 100 
3 90 93 104 
3 92 91 87 
3 82 79 78 
3 98 84 75 
3 94 85 105 
3 88 93 90 
3 99 76 73 
3 99 79 101 
3 96 83 81 
3 83 96 77 
3 83 90 102 
3 82 83 102 
3 104 93 74 
3 95 89 98 
3 85 88 77 
3 103 95 104 
3 90 83 77 
3 101 95 98 
3 101 79 95 
3 104 92 87 
3 76 101 98 
3 102 104 95 
3 83 82 81 
3 106 107 114 
3 110 106 113 
3 110 112 115 
3 108 106 110 
3 112 113 114 
3 112 114 107 
3 112 111 109 
3 115 112 109 
3 115 109 108 
3 113 106 114 
3 111 112 107 
3 108 109 111 
3 106 108 107 
3 110 113 112 
3 115 108 110 
3 108 111 107 
3 116 117 124 
3 120 116 123 
3 120 122 125 
3 118 116 120 
3 122 123 124 
3 122 124 117 
3 122 121 119 
3 125 122 119 
3 125 119 118 
3 123 116 124 
3 121 122 117 
3 118 119 121 
3 116 118 117 
3 120 123 122 
3 125 118 120 
3 118 121 117 
3 144 153 136 
3 138 154 141 
3 132 127 128 
3 140 137 147 
3 154 139 141 
3 156 136 147 
3 128 143 150 
3 145 128 131 
3 154 140 153 
3 155 129 147 
3 137 155 147 
3 127 152 143 
3 137 140 138 
3 152 130 143 
3 141 139 149 
3 130 133 144 
3 128 145 132 
3 132 133 152 
3 133 151 144 
3 148 142 126 
3 135 129 148 
3 135 156 129 
3 135 131 156 
3 140 147 136 
3 136 153 140 
3 149 139 126 
3 146 154 151 
3 131 135 148 
3 148 146 131 
3 137 149 155 
3 126 142 155 
3 155 149 126 
3 132 152 127 
3 137 138 149 
3 138 141 149 
3 139 154 146 
3 133 130 152 
3 142 129 155 
3 156 147 129 
3 129 142 148 
3 148 139 146 
3 139 148 126 
3 128 156 131 
3 143 128 127 
3 143 130 150 
3 150 156 128 
3 144 150 130 
3 145 134 132 
3 134 145 131 
3 134 146 151 
3 133 134 151 
3 144 136 156 
3 153 144 154 
3 146 134 131 
3 150 144 156 
3 154 138 140 
3 151 154 144 
3 134 133 132 
3 173 183 164 
3 179 184 178 
3 169 167 176 
3 158 172 180 
3 174 158 171 
3 184 169 183 
3 185 170 176 
3 167 185 176 
3 179 178 165 
3 182 166 160 
3 159 182 173 
3 158 174 160 
3 160 161 182 
3 182 181 173 
3 181 182 161 
3 177 170 157 
3 163 170 177 
3 163 186 170 
3 169 176 164 
3 164 183 169 
3 178 157 165 
3 178 168 157 
3 166 159 172 
3 175 184 181 
3 158 166 172 
3 171 163 177 
3 177 175 171 
3 165 185 167 
3 157 170 185 
3 185 165 157 
3 165 167 179 
3 168 184 175 
3 167 169 179 
3 182 159 166 
3 186 163 171 
3 186 176 170 
3 177 168 175 
3 168 177 157 
3 158 186 171 
3 172 159 180 
3 180 186 158 
3 173 180 159 
3 174 162 160 
3 162 174 171 
3 162 175 181 
3 161 162 181 
3 186 164 176 
3 184 168 178 
3 173 164 186 
3 166 158 160 
3 183 173 184 
3 175 162 171 
3 180 173 186 
3 184 179 169 
3 181 184 173 
3 161 160 162 
3 201 202 197 
3 201 197 190 
3 236 235 237 
3 236 237 238 
3 199 200 192 
3 199 192 198 
3 253 254 255 
3 253 255 256 
3 197 198 192 
3 197 192 190 
3 189 191 195 
3 189 195 196 
3 195 193 187 
3 195 187 196 
3 202 203 188 
3 202 188 197 
3 194 198 197 
3 194 197 188 
3 204 199 198 
3 204 198 194 
3 191 200 199 
3 191 199 195 
3 235 239 240 
3 235 240 237 
3 196 202 201 
3 196 201 189 
3 187 203 202 
3 187 202 196 
3 257 254 253 
3 257 253 258 
3 195 199 204 
3 195 204 193 
3 192 200 205 
3 192 205 206 
3 201 190 208 
3 201 208 207 
3 206 208 190 
3 206 190 192 
3 200 191 209 
3 200 209 205 
3 209 191 189 
3 209 189 210 
3 189 201 207 
3 189 207 210 
3 206 205 211 
3 206 211 212 
3 207 208 214 
3 207 214 213 
3 212 214 208 
3 212 208 206 
3 205 209 215 
3 205 215 211 
3 215 209 210 
3 215 210 216 
3 210 207 213 
3 210 213 216 
3 212 211 217 
3 212 217 218 
3 213 214 220 
3 213 220 219 
3 218 220 214 
3 218 214 212 
3 211 215 221 
3 211 221 217 
3 221 215 216 
3 221 216 222 
3 216 213 219 
3 216 219 222 
3 218 217 223 
3 218 223 224 
3 219 220 226 
3 219 226 225 
3 224 226 220 
3 224 220 218 
3 217 221 227 
3 217 227 223 
3 227 221 222 
3 227 222 228 
3 222 219 225 
3 222 225 228 
3 224 223 229 
3 224 229 230 
3 225 226 232 
3 225 232 231 
3 230 232 226 
3 230 226 224 
3 223 227 233 
3 223 233 229 
3 233 227 228 
3 233 228 234 
3 228 225 231 
3 228 231 234 
3 230 229 235 
3 230 235 236 
3 231 232 238 
3 231 238 237 
3 232 230 236 
3 232 236 238 
3 229 233 239 
3 229 239 235 
3 233 234 240 
3 233 240 239 
3 234 231 237 
3 234 237 240 
3 204 194 243 
3 204 243 242 
3 194 188 244 
3 194 244 243 
3 188 203 241 
3 188 241 244 
3 193 204 242 
3 193 242 245 
3 203 187 246 
3 203 246 241 
3 187 193 245 
3 187 245 246 
3 242 243 249 
3 242 249 248 
3 243 244 250 
3 243 250 249 
3 244 241 247 
3 244 247 250 
3 245 242 248 
3 245 248 251 
3 241 246 252 
3 241 252 247 
3 246 245 251 
3 246 251 252 
3 248 249 255 
3 248 255 254 
3 249 250 256 
3 249 256 255 
3 250 247 253 
3 250 253 256 
3 251 248 254 
3 251 254 257 
3 247 252 258 
3 247 258 253 
3 252 251 257 
3 252 257 258 
3 259 260 262 
3 259 262 261 
3 263 264 266 
3 263 266 265 
3 265 266 279 
3 265 279 280 
3 278 279 266 
3 278 266 264 
3 265 280 281 
3 265 281 263 
3 261 262 268 
3 261 268 267 
3 277 278 264 
3 277 264 269 
3 264 263 270 
3 264 270 269 
3 263 281 282 
3 263 282 270 
3 267 268 272 
3 267 272 271 
3 276 277 269 
3 276 269 273 
3 269 270 274 
3 269 274 273 
3 270 282 275 
3 270 275 274 
3 268 277 276 
3 268 276 272 
3 262 278 277 
3 262 277 268 
3 260 279 278 
3 260 278 262 
3 280 279 260 
3 280 260 259 
3 281 280 259 
3 281 259 261 
3 282 281 261 
3 282 261 267 
3 275 282 267 
3 275 267 271 
3 283 284 286 
3 283 286 285 
3 287 288 290 
3 287 290 289 
3 289 290 303 
3 289 303 304 
3 302 303 290 
3 302 290 288 
3 289 304 305 
3 289 305 287 
3 285 286 292 
3 285 292 291 
3 301 302 288 
3 301 288 293 
3 288 287 294 
3 288 294 293 
3 287 305 306 
3 287 306 294 
3 291 292 296 
3 291 296 295 
3 300 301 293 
3 300 293 297 
3 293 294 298 
3 293 298 297 
3 294 306 299 
3 294 299 298 
3 292 301 300 
3 292 300 296 
3 286 302 301 
3 286 301 292 
3 284 303 302 
3 284 302 286 
3 304 303 284 
3 304 284 283 
3 305 304 283 
3 305 283 285 
3 306 305 285 
3 306 285 291 
3 299 306 291 
3 299 291 295 
3 307 308 310 
3 307 310 309 
3 311 312 314 
3 311 314 313 
3 313 314 327 
3 313 327 328 
3 326 327 314 
3 326 314 312 
3 313 328 329 
3 313 329 311 
3 309 310 316 
3 309 316 315 
3 325 326 312 
3 325 312 317 
3 312 311 318 
3 312 318 317 
3 311 329 330 
3 311 330 318 
3 315 316 320 
3 315 320 319 
3 324 325 317 
3 324 317 321 
3 317 318 322 
3 317 322 321 
3 318 330 323 
3 318 323 322 
3 316 325 324 
3 316 324 320 
3 310 326 325 
3 310 325 316 
3 308 327 326 
3 308 326 310 
3 328 327 308 
3 328 308 307 
3 329 328 307 
3 329 307 309 
3 330 329 309 
3 330 309 315 
3 323 330 315 
3 323 315 319 
3 331 332 334 
3 331 334 333 
3 335 336 338 
3 335 338 337 
3 337 338 351 
3 337 351 352 
3 350 351 338 
3 350 338 336 
3 337 352 353 
3 337 353 335 
3 333 334 340 
3 333 340 339 
3 349 350 336 
3 349 336 341 
3 336 335 342 
3 336 342 341 
3 335 353 354 
3 335 354 342 
3 339 340 344 
3 339 344 343 
3 348 349 341 
3 348 341 345 
3 341 342 346 
3 341 346 345 
3 342 354 347 
3 342 347 346 
3 340 349 348 
3 340 348 344 
3 334 350 349 
3 334 349 340 
3 332 351 350 
3 332 350 334 
3 352 351 332 
3 352 332 331 
3 353 352 331 
3 353 331 333 
3 354 353 333 
3 354 333 339 
3 347 354 339 
3 347 339 343 
3 355 356 358 
3 355 358 357 
3 359 360 362 
3 359 362 361 
3 361 362 375 
3 361 375 376 
3 374 375 362 
3 374 362 360 
3 361 376 377 
3 361 377 359 
3 357 358 364 
3 357 364 363 
3 373 374 360 
3 373 360 365 
3 360 359 366 
3 360 366 365 
3 359 377 378 
3 359 378 366 
3 363 364 368 
3 363 368 367 
3 372 373 365 
3 372 365 369 
3 365 366 370 
3 365 370 369 
3 366 378 371 
3 366 371 370 
3 364 373 372 
3 364 372 368 
3 358 374 373 
3 358 373 364 
3 356 375 374 
3 356 374 358 
3 376 375 356 
3 376 356 355 
3 377 376 355 
3 377 355 357 
3 378 377 357 
3 378 357 363 
3 371 378 363 
3 371 363 367 
3 379 380 382 
3 379 382 381 
3 383 384 386 
3 383 386 385 
3 385 386 399 
3 385 399 400 
3 398 399 386 
3 398 386 384 
3 385 400 401 
3 385 401 383 
3 381 382 388 
3 381 388 387 
3 397 398 384 
3 397 384 389 
3 384 383 390 
3 384 390 389 
3 383 401 402 
3 383 402 390 
3 387 388 392 
3 387 392 391 
3 396 397 389 
3 396 389 393 
3 389 390 394 
3 389 394 393 
3 390 402 395 
3 390 395 394 
3 388 397 396 
3 388 396 392 
3 382 398 397 
3 382 397 388 
3 380 399 398 
3 380 398 382 
3 400 399 380 
3 400 380 379 
3 401 400 379 
3 401 379 381 
3 402 401 381 
3 402 381 387 
3 395 402 387 
3 395 387 391 
3 403 404 406 
3 403 406 405 
3 407 408 410 
3 407 410 409 
3 404 410 408 
3 404 408 406 
3 409 403 405 
3 409 405 407 
3 405 406 412 
3 405 412 411 
3 406 408 413 
3 406 413 412 
3 408 407 414 
3 408 414 413 
3 407 405 411 
3 407 411 414 
3 411 412 416 
3 411 416 415 
3 412 413 417 
3 412 417 416 
3 413 414 418 
3 413 418 417 
3 414 411 415 
3 414 415 418 
3 419 420 422 
3 419 422 421 
3 423 424 426 
3 423 426 425 
3 420 426 424 
3 420 424 422 
3 425 419 421 
3 425 421 423 
3 421 422 428 
3 421 428 427 
3 422 424 429 
3 422 429 428 
3 424 423 430 
3 424 430 429 
3 423 421 427 
3 423 427 430 
3 427 428 432 
3 427 432 431 
3 428 429 433 
3 428 433 432 
3 429 430 434 
3 429 434 433 
3 430 427 431 
3 430 431 434 
3 435 436 438 
3 435 438 437 
3 439 440 442 
3 439 442 441 
3 436 442 440 
3 436 440 438 
3 441 435 437 
3 441 437 439 
3 437 438 444 
3 437 444 443 
3 438 440 445 
3 438 445 444 
3 440 439 446 
3 440 446 445 
3 439 437 443 
3 439 443 446 
3 443 444 448 
3 443 448 447 
3 444 445 449 
3 444 449 448 
3 445 446 450 
3 445 450 449 
3 446 443 447 
3 446 447 450 
3 451 452 454 
3 451 454 453 
3 455 456 458 
3 455 458 457 
3 452 458 456 
3 452 456 454 
3 457 451 453 
3 457 453 455 
3 453 454 460 
3 453 460 459 
3 454 456 461 
3 454 461 460 
3 456 455 462 
3 456 462 461 
3 455 453 459 
3 455 459 462 
3 459 460 464 
3 459 464 463 
3 460 461 465 
3 460 465 464 
3 461 462 466 
3 461 466 465 
3 462 459 463 
3 462 463 466 
3 467 468 470 
3 467 470 469 
3 471 472 474 
3 471 474 473 
3 468 474 472 
3 468 472 470 
3 473 467 469 
3 473 469 471 
3 469 470 476 
3 469 476 475 
3 470 472 477 
3 470 477 476 
3 472 471 478 
3 472 478 477 
3 471 469 475 
3 471 475 478 
3 475 476 480 
3 475 480 479 
3 476 477 481 
3 476 481 480 
3 477 478 482 
3 477 482 481 
3 478 475 479 
3 478 479 482 
3 483 484 486 
3 483 486 485 
3 487 488 490 
3 487 490 489 
3 484 490 488 
3 484 488 486 
3 489 483 485 
3 489 485 487 
3 485 486 492 
3 485 492 491 
3 486 488 493 
3 486 493 492 
3 488 487 494 
3 488 494 493 
3 487 485 491 
3 487 491 494 
3 491 492 496 
3 491 496 495 
3 492 493 497 
3 492 497 496 
3 493 494 498 
3 493 498 497 
3 494 491 495 
3 494 495 498 
3 499 500 502 
3 499 502 501 
3 503 504 506 
3 503 506 505 
3 500 506 504 
3 500 504 502 
3 505 499 501 
3 505 501 503 
3 501 502 508 
3 501 508 507 
3 502 504 509 
3 502 509 508 
3 504 503 510 
3 504 510 509 
3 503 501 507 
3 503 507 510 
3 507 508 512 
3 507 512 511 
3 508 509 513 
3 508 513 512 
3 509 510 514 
3 509 514 513 
3 510 507 511 
3 510 511 514 
3 515 516 518 
3 515 518 517 
3 519 520 522 
3 519 522 521 
3 516 522 520 
3 516 520 518 
3 521 515 517 
3 521 517 519 
3 517 518 524 
3 517 524 523 
3 518 520 525 
3 518 525 524 
3 520 519 526 
3 520 526 525 
3 519 517 523 
3 519 523 526 
3 523 524 528 
3 523 528 527 
3 524 525 529 
3 524 529 528 
3 525 526 530 
3 525 530 529 
3 526 523 527 
3 526 527 530 
3 531 532 534 
3 531 534 533 
3 535 536 538 
3 535 538 537 
3 537 538 551 
3 537 551 552 
3 550 551 538 
3 550 538 536 
3 537 552 553 
3 537 553 535 
3 533 534 540 
3 533 540 539 
3 549 550 536 
3 549 536 541 
3 536 535 542 
3 536 542 541 
3 535 553 554 
3 535 554 542 
3 539 540 544 
3 539 544 543 
3 548 549 541 
3 548 541 545 
3 541 542 546 
3 541 546 545 
3 542 554 547 
3 542 547 546 
3 540 549 548 
3 540 548 544 
3 534 550 549 
3 534 549 540 
3 532 551 550 
3 532 550 534 
3 552 551 532 
3 552 532 531 
3 553 552 531 
3 553 531 533 
3 554 553 533 
3 554 533 539 
3 547 554 539 
3 547 539 543 
3 555 556 558 
3 555 558 557 
3 559 560 562 
3 559 562 561 
3 561 562 575 
3 561 575 576 
3 574 575 562 
3 574 562 560 
3 561 576 577 
3 561 577 559 
3 557 558 564 
3 557 564 563 
3 573 574 560 
3 573 560 565 
3 560 559 566 
3 560 566 565 
3 559 577 578 
3 559 578 566 
3 563 564 568 
3 563 568 567 
3 572 573 565 
3 572 565 569 
3 565 566 570 
3 565 570 569 
3 566 578 571 
3 566 571 570 
3 564 573 572 
3 564 572 568 
3 558 574 573 
3 558 573 564 
3 556 575 574 
3 556 574 558 
3 576 575 556 
3 576 556 555 
3 577 576 555 
3 577 555 557 
3 578 577 557 
3 578 557 563 
3 571 578 563 
3 571 563 567 
3 579 580 582 
3 579 582 581 
3 583 584 586 
3 583 586 585 
3 585 586 599 
3 585 599 600 
3 598 599 586 
3 598 586 584 
3 585 600 601 
3 585 601 583 
3 581 582 588 
3 581 588 587 
3 597 598 584 
3 597 584 589 
3 584 583 590 
3 584 590 589 
3 583 601 602 
3 583 602 590 
3 587 588 592 
3 587 592 591 
3 596 597 589 
3 596 589 593 
3 589 590 594 
3 589 594 593 
3 590 602 595 
3 590 595 594 
3 588 597 596 
3 588 596 592 
3 582 598 597 
3 582 597 588 
3 580 599 598 
3 580 598 582 
3 600 599 580 
3 600 580 579 
3 601 600 579 
3 601 579 581 
3 602 601 581 
3 602 581 587 
3 595 602 587 
3 595 587 591 
3 603 604 606 
3 603 606 605 
3 607 608 610 
3 607 610 609 
3 609 610 623 
3 609 623 624 
3 622 623 610 
3 622 610 608 
3 609 624 625 
3 609 625 607 
3 605 606 612 
3 605 612 611 
3 621 622 608 
3 621 608 613 
3 608 607 614 
3 608 614 613 
3 607 625 626 
3 607 626 614 
3 611 612 616 
3 611 616 615 
3 620 621 613 
3 620 613 617 
3 613 614 618 
3 613 618 617 
3 614 626 619 
3 614 619 618 
3 612 621 620 
3 612 620 616 
3 606 622 621 
3 606 621 612 
3 604 623 622 
3 604 622 606 
3 624 623 604 
3 624 604 603 
3 625 624 603 
3 625 603 605 
3 626 625 605 
3 626 605 611 
3 619 626 611 
3 619 611 615 
3 627 628 630 
3 627 630 629 
3 631 632 634 
3 631 634 633 
3 628 634 632 
3 628 632 630 
3 633 627 629 
3 633 629 631 
3 632 631 638 
3 632 638 637 
3 631 629 635 
3 631 635 638 
3 630 636 635 
3 630 635 629 
3 632 637 636 
3 632 636 630 
3 639 640 642 
3 639 642 641 
3 643 644 646 
3 643 646 645 
3 640 646 644 
3 640 644 642 
3 645 639 641 
3 645 641 643 
3 644 643 650 
3 644 650 649 
3 643 641 647 
3 643 647 650 
3 642 648 647 
3 642 647 641 
3 644 649 648 
3 644 648 642 
3 651 652 654 
3 651 654 653 
3 655 656 658 
3 655 658 657 
3 652 658 656 
3 652 656 654 
3 657 651 653 
3 657 653 655 
3 656 655 662 
3 656 662 661 
3 655 653 659 
3 655 659 662 
3 654 660 659 
3 654 659 653 
3 656 661 660 
3 656 660 654 
3 663 664 666 
3 663 666 665 
3 667 668 670 
3 667 670 669 
3 664 670 668 
3 664 668 666 
3 669 663 665 
3 669 665 667 
3 668 667 674 
3 668 674 673 
3 667 665 671 
3 667 671 674 
3 666 672 671 
3 666 671 665 
3 668 673 672 
3 668 672 666 
3 628 627 633 
3 628 633 634 
3 640 639 645 
3 640 645 646 
3 652 651 657 
3 652 657 658 
3 664 663 669 
3 664 669 670 
